<svg xmlns="http://www.w3.org/2000/svg" width="79.536" height="79.536"><path d="M70.943 44.304l-9.735 9.311 2.951.859c-4.23 6.954-11.878 10.015-20.588 10.615V29.826h8.078a3.7 3.7 0 002.641 1.092 3.717 3.717 0 003.718-3.718 3.722 3.722 0 00-3.718-3.723 3.74 3.74 0 00-2.641 1.098h-8.078v-4.251c3.925-1.533 6.731-5.333 6.731-9.8C50.303 4.73 45.581 0 39.769 0c-5.811 0-10.53 4.73-10.53 10.524 0 4.771 3.213 8.777 7.581 10.059v3.987h-8.933a3.725 3.725 0 00-6.359 2.63 3.72 3.72 0 003.723 3.718c1.028 0 1.96-.414 2.636-1.092h8.933v35.242c-9.178-.684-17.189-4.257-21.21-11.791l2.939-.647-9.099-9.921-4.052 12.842 3.431-.767c5.015 10.988 16.448 19.838 29.359 20.692l2.004 4.06 1.999-4.05c12.28-.823 23.211-8.896 28.617-19.065l3.329.974-3.194-13.091zM34.37 10.524a5.404 5.404 0 0110.806 0 5.413 5.413 0 01-5.408 5.403 5.403 5.403 0 01-5.398-5.403z" fill="#010002"/></svg>