<svg viewBox="0 0 24 24" xmlns="http://www.w3.org/2000/svg" fill-rule="evenodd" clip-rule="evenodd" stroke-linejoin="round" stroke-miterlimit="2"><path d="M18.871 20.493l1.445-.843a2.75 2.75 0 00-.069-4.79l-1.442-.786a4.117 4.117 0 00-3.501-.209l-.703.281a.621.621 0 01-.477-.005l-.148-.064a7.715 7.715 0 01-4.053-4.053v-.001a.676.676 0 01.041-.614l.292-.486a3.753 3.753 0 00-.052-3.945L9.178 3.366a2.75 2.75 0 00-4.695.09l-.976 1.673a4.747 4.747 0 00-.037 4.722l.719 1.278a22.756 22.756 0 008.682 8.682l1.278.719a4.747 4.747 0 004.722-.037zm-.756-1.295a3.251 3.251 0 01-3.231.025l-1.278-.719a21.273 21.273 0 01-8.11-8.11l-.719-1.278a3.251 3.251 0 01.025-3.231l.976-1.673a1.251 1.251 0 012.135-.041l1.026 1.612c.458.72.47 1.637.031 2.368l-.292.487a2.174 2.174 0 00-.134 1.976v.001a9.217 9.217 0 004.841 4.841l.148.063a2.123 2.123 0 001.625.02l.703-.281a2.617 2.617 0 012.226.133l1.442.786a1.25 1.25 0 01.031 2.177l-1.445.844z"/><path d="M14.75 8.189l2.22-2.219a.749.749 0 111.06 1.06l-2.219 2.22h.689a.75.75 0 010 1.5H14a.744.744 0 01-.497-.189l-.02-.018-.007-.006-.02-.021-.013-.014-.004-.005A.744.744 0 0113.25 10V7.5a.75.75 0 011.5 0v.689z"/></svg>