<svg xmlns="http://www.w3.org/2000/svg" viewBox="0 0 612 612"><path d="M587.826 186.966c-16.116-37.332-37.944-69.768-65.484-97.308s-59.976-49.368-97.308-65.484S348.024 0 306 0c-28.152 0-55.284 3.672-81.396 11.016s-50.49 17.646-73.134 30.906-43.248 29.172-61.812 47.736-34.476 39.168-47.736 61.812c-13.26 22.646-23.562 47.022-30.906 73.134C3.672 250.716 0 277.848 0 306s3.672 55.284 11.016 81.396c7.344 26.11 17.646 50.487 30.906 73.134a305.06 305.06 0 0047.736 61.812 305.015 305.015 0 0061.812 47.736c22.644 13.26 47.022 23.561 73.134 30.906C250.716 608.328 277.848 612 306 612s55.284-3.672 81.396-11.016c26.111-7.346 50.488-17.646 73.135-30.906a305.024 305.024 0 0061.812-47.736 304.988 304.988 0 0047.736-61.812c13.26-22.646 23.561-47.023 30.906-73.135C608.328 361.284 612 334.152 612 306c0-42.024-8.058-81.702-24.174-119.034zM296.82 212.364c-2.04 2.855-4.284 4.284-6.732 4.284-42.024 6.12-63.036 25.5-63.036 58.14h37.332c6.528 0 9.792 3.264 9.792 9.792v140.76c0 6.528-3.264 9.792-9.792 9.792H146.88c-6.528 0-9.792-3.264-9.792-9.792V303.552c0-95.88 46.92-146.268 140.76-151.164 2.448-.408 4.59.204 6.426 1.836s3.162 3.672 3.978 6.12l9.792 44.676c.816 2.856.408 5.304-1.224 7.344zm181.152 0c-1.632 2.855-3.876 4.284-6.729 4.284-41.208 6.12-62.223 25.5-63.036 58.14h37.332c2.854 0 5.304.918 7.344 2.754s3.063 4.182 3.063 7.038v140.76c0 2.856-1.021 5.202-3.063 7.038s-4.489 2.754-7.344 2.754H328.644c-2.854 0-5.304-.918-7.344-2.754s-3.06-4.182-3.06-7.038V303.552c0-95.88 47.124-146.268 141.372-151.164 2.445-.408 4.59.204 6.426 1.836s3.163 3.672 3.978 6.12l9.792 44.676c.816 2.856.204 5.304-1.836 7.344z" fill="#010002"/></svg>